<svg width="156" height="50" viewBox="0 0 156 50" fill="none" xmlns="http://www.w3.org/2000/svg">
    <path d="M94.8723 0H90.8352V49.9955H94.8723V0Z" fill="#C2B59B"/>
    <path d="M84.7482 0H80.7111V49.991H84.7482V0Z" fill="#C2B59B"/>
    <path d="M104.997 0H100.96V49.9955H104.997V0Z" fill="#C2B59B"/>
    <path d="M115.09 8.25732H111.052V33.3317H115.09V8.25732Z" fill="#C2B59B"/>
    <path d="M125.182 8.25732H121.145V33.3317H125.182V8.25732Z" fill="#C2B59B"/>
    <path d="M145.364 0H141.326V49.9955H145.364V0Z" fill="#C2B59B"/>
    <path d="M135.271 0.00439453H131.234V49.9999H135.271V0.00439453Z" fill="#C2B59B"/>
    <path d="M155.452 0H151.415V49.9955H155.452V0Z" fill="#C2B59B"/>
    <path d="M14.1614 0H10.1243V49.9955H14.1614V0Z" fill="#C2B59B"/>
    <path d="M4.03711 0H0V49.991H4.03711V0Z" fill="#C2B59B"/>
    <path d="M24.2903 0H20.2532V49.9955H24.2903V0Z" fill="#C2B59B"/>
    <path d="M34.3785 8.25732H30.3414V33.3317H34.3785V8.25732Z" fill="#C2B59B"/>
    <path d="M44.4716 8.25732H40.4344V33.3317H44.4716V8.25732Z" fill="#C2B59B"/>
    <path d="M64.6526 0H60.6155V49.9955H64.6526V0Z" fill="#C2B59B"/>
    <path d="M54.5642 0.00439453H50.5271V49.9999H54.5642V0.00439453Z" fill="#C2B59B"/>
    <path d="M74.7453 0H70.7081V49.9955H74.7453V0Z" fill="#C2B59B"/>
</svg>
