<?xml version="1.0" encoding="UTF-8"?>
<svg id="Layer_1" data-name="Layer 1" xmlns="http://www.w3.org/2000/svg" viewBox="0 0 423.17 415.14" fill="#fff">
    <path
          d="M423.17,358.58c-1.79,4.89-5.13,8.18-10.2,9.46-6.54,1.66-12.99,1.51-19.01-1.88-3.77-2.12-5.79-5.57-5.62-9.87,.19-4.91,2.92-8.3,7.4-10.26,.87-.38,1.78-.65,2.96-1.08-3.66-1.26-6.65-2.95-8.24-6.37-2.69-5.79,.07-11.81,6.94-14.47,5.98-2.31,12.05-2.18,17.89,.59,4.03,1.92,6.56,4.95,6.46,9.73-.09,4.63-2.55,7.54-6.54,9.43-.72,.34-1.45,.65-2.44,1.1,3.49,1.16,6.53,2.63,8.52,5.72,.92,1.43,1.12,3.09,1.88,4.54v3.36Zm-25.41-2.14c-.04,2.01,.28,3.98,1.02,5.83,1.14,2.85,3.31,4.39,6.43,4.49,3.12,.1,5.62-.91,7.01-3.91,1.92-4.15,1.81-8.36,.07-12.48-1.44-3.42-5.23-4.96-8.77-3.87-3.78,1.16-5.74,4.56-5.76,9.94Zm14.86-22.02c.12-2.17-.21-4.36-1.33-6.36-1.18-2.12-2.96-3.13-5.47-3.16-2.58-.03-4.6,.82-5.72,3.1-2.09,4.26-2.03,8.62,.06,12.86,1.07,2.18,3.09,3.24,5.46,3.26,2.48,.01,4.43-1.16,5.64-3.38,1.05-1.93,1.44-4.03,1.35-6.31Z"/>
    <path
          d="M206.03,415.14c-1.61-5.58-3.23-11.15-4.8-16.74-.22-.78-1.19-1.91,.27-2.35,1.38-.42,2.56-.14,2.98,1.69,.9,3.95,1.98,7.87,3,11.79,.12,.45,.31,.88,.67,1.87,1.25-4.91,2.41-9.28,3.47-13.68,.27-1.14,.57-1.81,1.97-1.81,1.38,0,1.92,.44,2.24,1.78,1.03,4.33,2.23,8.61,3.43,13.19,1.18-1.45,1.15-3.08,1.57-4.51,.84-2.9,1.58-5.84,2.2-8.8,.38-1.81,1.6-1.86,2.86-1.53,1.45,.37,.45,1.45,.27,2.11-1.55,5.68-3.17,11.33-4.78,16.99h-3.83c-1.2-4.61-2.4-9.22-3.6-13.83-.17,.02-.35,.04-.52,.06-1.18,4.59-2.37,9.18-3.55,13.77h-3.83Z"/>
    <path
          d="M175.83,415.14c-5.68-2.98-7.71-7.82-5.75-13.65,1.54-4.6,5.16-6.11,9.1-5.8,4.84,.38,7.77,3.45,8.14,7.9,.51,6.22-.84,8.74-6.22,11.56h-5.27Zm8.18-9.71c0-3.54-1.24-5.79-3.63-6.58-3.31-1.09-6.24,.49-7.19,3.88-1.18,4.21,.57,8.71,3.68,9.47,.23,.06,.47,.06,.71,.08,4.12,.4,6.44-2.06,6.44-6.85Z"/>
    <path
          d="M267.38,415.14c-.02-5.74,0-11.49-.07-17.23-.02-1.39,.31-2.05,1.85-1.97,2.23,.11,4.47-.02,6.7,.07,2.86,.12,4.91,1.63,5.64,4,.78,2.51,.07,4.61-2.52,6.34-1.12,.75-.87,1.26-.34,2.07,1.42,2.2,3.07,4.27,4.08,6.72h-3.83c-.97-2.61-2.67-4.8-4.24-7.05-.88-1.26-2.36-.68-3.53-.56-1.26,.13-.75,1.37-.79,2.15-.08,1.82-.05,3.64-.06,5.46h-2.88Zm6-10.53c.94,0,1.66,.07,2.37-.01,2.3-.26,3.37-2.71,2.04-4.62-.71-1.02-6.24-1.74-7.14-.93-.11,.1-.24,.26-.24,.39,0,1.58-.33,3.27,.15,4.69,.38,1.1,2.01,.29,2.83,.49Z"/>
    <path
          d="M146.59,415.14c.01-4.78-.03-9.55,.06-14.32,.03-1.57-.47-2.18-2.04-2.02-.95,.1-1.91-.02-2.86,.02-1.02,.04-1.41-.4-1.41-1.41,0-.98,.3-1.46,1.36-1.45,4.54,.03,9.08,.02,13.61,0,.92,0,1.26,.43,1.27,1.31,0,.92-.17,1.59-1.29,1.53-.24-.01-.48,0-.72,0q-4.62,.12-4.62,4.87c0,3.82,0,7.64,0,11.46h-3.36Z"/>
    <path
          d="M240.06,415.14c0-.16,0-.33,.01-.49,4.63,0,9.25,0,13.88,0,0,.16,0,.33,.01,.49h-13.9Z"/>
    <path
          d="M167.59,199.8c0,29.78-.03,59.57,.05,89.35,0,2.31-.61,2.98-2.92,2.91-5.15-.16-5.15-.04-5.15-5.15,0-58.69,0-117.38,0-176.06,0-3.76-.43-3.39,3.27-3.37,5.36,.04,4.73-.78,4.73,4.66,.02,29.22,0,58.45,0,87.67Z"/>
    <path
          d="M186.81,199.96c0,29.7-.04,59.41,.06,89.11,0,2.52-.73,3.06-3.08,2.98-5-.17-5-.05-5-5.08,0-58.61,0-117.22,0-175.82q0-3.69,3.8-3.69,4.22,0,4.22,4.11v88.39Z"/>
    <path
          d="M140.36,199.73c0-29.78,.02-59.57-.05-89.35,0-2.21,.39-3.07,2.82-2.98,4.93,.19,4.94,.05,4.94,4.9,0,58.77,0,117.54,0,176.31,0,3.77,.41,3.37-3.26,3.39-4.44,.02-4.44,0-4.44-4.35,0-29.3,0-58.61,0-87.91Z"/>
    <path
          d="M244.38,199.67c0,29.87-.02,59.74,.05,89.61,0,2.19-.56,2.85-2.77,2.78-5.04-.15-5.04-.04-5.04-5.04,0-58.78,0-117.56,0-176.34q0-3.21,3.23-3.21,4.53,0,4.53,4.51c0,29.23,0,58.46,0,87.69Z"/>
    <path
          d="M255.84,199.65c0-29.78,.03-59.57-.05-89.35,0-2.32,.62-2.97,2.92-2.89,4.84,.17,4.84,.05,4.84,4.97,0,58.85,0,117.7,0,176.54q0,3.07-3.09,3.08-4.62,0-4.62-4.68v-87.67Z"/>
    <path
          d="M282.72,199.75c0,29.7,0,59.41,0,89.11q0,3.13-3.03,3.14-4.68,0-4.68-4.61c0-58.85,0-117.7,0-176.54,0-3.75-.41-3.36,3.28-3.37,4.43-.02,4.43,0,4.43,4.37,0,29.3,0,58.61,0,87.91Z"/>
    <path
          d="M184.1,328.75c-1.69,4.43-3.38,8.85-5.05,13.28-2.99,7.9-6.01,15.79-8.94,23.71-.61,1.67-1.27,2.58-3.33,2.56-2.02-.02-2.35-1.24-2.85-2.56-4.39-11.55-8.77-23.09-13.16-34.64-.3-.78-.67-1.54-1.35-2.23v18.35c0,6.23,.01,12.46-.01,18.68,0,1.03,.42,2.34-1.47,2.32-1.75-.03-1.34-1.24-1.34-2.19-.02-13.41,.02-26.83-.05-40.24-.01-1.83,.55-2.4,2.31-2.24,1.58,.14,3.19,.03,4.79,.03,4.37,0,4.34,.01,5.91,4.22,3.34,8.96,6.71,17.91,10.08,26.86,.19,.5,.29,1.08,1.02,1.48,1.59-3.12,2.61-6.44,3.83-9.66,2.63-6.93,5.25-13.86,7.79-20.83,.58-1.59,1.4-2.24,3.13-2.11,2.3,.16,4.63,.09,6.94,.02,1.23-.03,1.68,.39,1.68,1.65-.03,13.73-.03,27.47,0,41.2,0,1.33-.41,1.88-1.78,1.81-1.59-.09-3.21-.16-4.79,.01-2.26,.25-3-.47-2.97-2.84,.13-11.42,.06-22.84,.06-34.25,0-.77,0-1.54,0-2.3-.15-.03-.3-.07-.45-.1Z"/>
    <path
          d="M268.58,346.44c7.25,1.05,10.88,4.88,12.06,11.29,.51,2.81,1.28,5.58,1.98,8.36,.38,1.52,.01,2.24-1.7,2.14-1.99-.11-3.99-.07-5.99,0-1.18,.04-1.62-.39-1.86-1.59-.8-3.98-1.72-7.93-2.7-11.87-1.35-5.38-3.58-7.09-9.13-7.21q-4.87-.11-4.87,4.63c0,4.71-.05,9.42,.03,14.13,.02,1.48-.46,1.98-1.92,1.9-1.91-.1-3.84-.1-5.75,0-1.52,.08-1.88-.57-1.88-1.97,.04-13.57,.03-27.15,.01-40.72,0-1.14,.03-2.03,1.6-1.97,6.77,.27,13.57-.5,20.32,.5,2.69,.4,5.32,1.05,7.66,2.53,6.96,4.4,6.59,13.66-.66,17.52-2.07,1.1-4.33,1.55-7.2,2.31Zm-12.22-10.93v3.35q0,7.23,7.22,6.27c4.86-.65,7.86-3.91,8.11-8.8,.28-5.61-2.17-9.06-7.29-10.14-2.28-.48-4.61-.18-6.91-.22-1.23-.02-1.12,.86-1.13,1.66,0,2.63,0,5.26,0,7.89Z"/>
    <path
          d="M44.97,345.85c0-6.71,.05-13.41-.03-20.11-.02-1.65,.41-2.31,2.13-2.17,1.67,.14,3.36,.13,5.02,0,1.75-.14,2.13,.62,2.11,2.22-.08,5.35,.03,10.7-.06,16.04-.03,1.81,.62,2.35,2.37,2.32,5.19-.09,10.38-.1,15.57,0,1.94,.04,2.67-.51,2.62-2.56-.13-5.11,.09-10.22-.1-15.32-.08-2.3,.72-2.91,2.83-2.71,1.58,.16,3.19,.09,4.79,.01,1.27-.06,1.65,.46,1.65,1.68-.03,13.73-.03,27.46,0,41.19,0,1.35-.45,1.85-1.8,1.79-1.75-.08-3.52-.12-5.27,0-1.66,.12-2.21-.45-2.18-2.15,.09-5.83-.01-11.65,.06-17.48,.02-1.68-.37-2.47-2.25-2.43-5.35,.1-10.7,.1-16.04,0-1.89-.04-2.26,.77-2.24,2.44,.07,5.75-.05,11.5,.07,17.24,.04,1.95-.6,2.55-2.46,2.37-2.13-.2-4.9,.86-6.26-.4-1.52-1.39-.46-4.23-.5-6.42-.09-5.19-.03-10.38-.03-15.56Z"/>
    <path
          d="M358.64,344.93c-4.1-1.43-7.58-3.5-8.74-7.88-1.39-5.27,.73-9.82,6.11-12.32,6.82-3.17,13.87-3.14,20.47,.61,7.19,4.09,7.21,13.17,.29,17.68-1.25,.82-2.58,1.47-4.46,1.93,3.37,.95,6.09,2.17,8.11,4.62,4.07,4.95,3.19,12.1-2.01,15.82-6.55,4.68-17.96,4.94-24.76,.55-7.4-4.77-6.97-15.08,.82-19.22,1.31-.7,2.73-1.17,4.18-1.77Zm-.65,11.67c0,.96-.09,1.93,.02,2.87,.48,4.05,3.28,7.04,6.73,7.28,4.47,.31,7.21-1.61,8.29-6.17,.74-3.13,.71-6.36-.39-9.43-1.1-3.05-3.39-4.84-6.66-4.98-3.03-.13-5.4,1.2-6.86,3.93-1.08,2.03-1.3,4.25-1.13,6.5Zm7.68-31.66c-3.21,0-5.14,1.25-6.16,4.26-1.05,3.09-1,6.3-.23,9.42,.91,3.68,3.11,5.48,6.27,5.53,3.26,.06,5.54-1.78,6.51-5.54,.78-3.03,.82-6.13-.17-9.15-1.06-3.21-2.93-4.52-6.22-4.52Z"/>
    <path
          d="M159.57,46.3c0-14.52,.04-29.05-.04-43.57-.01-1.98,.32-2.8,2.57-2.74,5.49,.16,5.49,.03,5.49,5.53,0,27.93,0,55.86,0,83.79,0,3.16,0,3.18-3.13,3.16-5.7-.05-4.86,.68-4.87-4.75-.04-13.8-.01-27.61-.01-41.41Z"/>
    <path
          d="M178.79,46.05c0-14.52,.03-29.05-.03-43.57,0-1.79,.35-2.51,2.35-2.48,5.7,.09,5.7,0,5.7,5.78,0,27.85,0,55.7,0,83.55,0,3.14,0,3.17-3.14,3.14-5.61-.05-4.85,.73-4.87-4.77-.03-13.88-.01-27.77-.01-41.65Z"/>
    <path
          d="M148.07,46.33c0,14.44-.04,28.88,.04,43.33,.01,1.96-.49,2.61-2.52,2.57-5.23-.1-5.24,0-5.24-5.3,0-28.09,.02-56.17-.05-84.26,0-2.08,.47-2.73,2.63-2.67,5.13,.15,5.13,.04,5.13,5.15,0,13.72,0,27.45,0,41.17Z"/>
    <path
          d="M244.38,46.34c0,14.45-.04,28.89,.04,43.34,.01,1.99-.52,2.58-2.53,2.55-5.27-.1-5.28-.01-5.28-5.3,0-28.02,.03-56.03-.06-84.05,0-2.35,.65-2.96,2.93-2.88,4.88,.17,4.88,.05,4.88,4.91,0,13.81,0,27.62,0,41.43Z"/>
    <path
          d="M282.72,46.35c0,14.44-.04,28.88,.04,43.33,.01,1.98-.51,2.59-2.52,2.55-5.23-.11-5.23-.01-5.23-5.32,0-28.01,.03-56.01-.06-84.02,0-2.33,.6-2.97,2.91-2.89,4.85,.18,4.86,.05,4.86,4.94,0,13.8,0,27.61,0,41.41Z"/>
    <path
          d="M263.55,46.35c0,14.44-.04,28.88,.04,43.33,.01,1.98-.52,2.59-2.53,2.55-5.22-.1-5.23-.01-5.23-5.32,0-28.01,.03-56.01-.06-84.02,0-2.34,.61-2.97,2.92-2.88,4.85,.18,4.85,.05,4.85,4.94,0,13.8,0,27.61,0,41.41Z"/>
    <path
          d="M298,344.46c.04,6.01,.33,10.77,2.23,15.27,1.95,4.59,5.36,7.01,9.87,7,4.46-.01,7.91-2.54,9.77-7.14,.12-.29,.17-.62,.31-.9,.68-1.39,.15-3.82,1.58-4.19,2.24-.59,4.75-.28,7.14-.14,1.3,.08,.72,1.16,.54,1.86-1.47,5.75-5.27,9.46-10.7,11.31-13.09,4.46-27.56-1.41-30.48-16.56-2.37-12.29,3.35-24.24,15.27-27.39,8.31-2.2,16.16-1.21,22.57,5.28,1.79,1.81,2.73,4.08,3.42,6.49,.38,1.31-.08,1.8-1.37,1.69-.32-.03-.64,0-.96,0-1.84-.02-3.88,.46-5.45-.19-1.69-.7-1.04-3.1-1.65-4.7-1.98-5.2-5.2-7.37-11.06-7.18-4.43,.14-8,3.29-9.49,8.44-1.16,4.01-1.65,8.11-1.54,11.07Z"/>
    <path
          d="M197.97,161.43c0-11.97,.05-23.93-.04-35.9-.02-2.09,.58-2.77,2.7-2.73,5.36,.1,5.36,0,5.36,5.28,0,22.98-.03,45.95,.05,68.93,0,2.21-.39,3.07-2.82,2.98-5.24-.19-5.25-.05-5.25-5.29,0-11.09,0-22.18,0-33.27Z"/>
    <path
          d="M217.14,161.6c0-11.97,.04-23.93-.04-35.9-.01-2.11,.44-2.97,2.77-2.91,5.29,.14,5.29,.02,5.29,5.36,0,23.06-.03,46.11,.05,69.17,0,2.1-.51,2.72-2.65,2.66-5.42-.14-5.42-.03-5.42-5.35,0-11.01,0-22.02,0-33.03Z"/>
    <path
          d="M235.71,368.21q-4.84,0-6.46-4.48c-.9-2.47-1.87-4.91-2.72-7.4-.42-1.23-1.04-1.73-2.41-1.71-4.95,.09-9.9,.09-14.85,0-1.47-.02-2.12,.54-2.56,1.88-1.11,3.32-2.35,6.6-3.55,9.9-.24,.65-.29,1.52-1.11,1.7-.59,.14-1.38,.2-1.85-.08-.88-.53-.13-1.31,.08-1.9,3.48-9.67,6.99-19.33,10.5-28.99,1.44-3.97,2.95-7.91,4.32-11.91,.44-1.29,1.1-1.66,2.43-1.67,6.56-.08,6.64-.15,8.99,6.02,4.56,11.99,9.04,24.01,13.53,36.03,.94,2.51,.84,2.6-1.94,2.61-.8,0-1.6,0-2.39,0Zm-19.29-39.02c-2.66,7.46-5.11,14.42-7.64,21.34-.54,1.48-.1,1.81,1.31,1.8,4.3-.05,8.6-.06,12.9,0,1.64,.03,1.9-.49,1.33-1.97-1.49-3.85-2.86-7.75-4.3-11.63-1.13-3.03-2.28-6.06-3.6-9.55Z"/>
    <path
          d="M94.38,345.86c0-6.71,.05-13.42-.03-20.12-.02-1.65,.43-2.2,2.14-2.19,9.1,.08,18.21,.03,27.31,.05,.87,0,2.09-.41,2.07,1.18-.02,1.59-1.26,1.15-2.11,1.15-5.91,.03-11.82,.07-17.73-.02-1.67-.02-2.21,.47-2.17,2.16,.1,4.63,.12,9.26,0,13.89-.05,1.89,.67,2.25,2.37,2.22,5.27-.09,10.54-.04,15.81-.03,.91,0,2.07-.29,1.98,1.29-.09,1.42-1.19,1.04-1.98,1.04-5.27,.03-10.54,.08-15.81-.02-1.72-.03-2.41,.36-2.36,2.24,.12,5.03,.1,10.06,.01,15.09-.03,1.58,.5,2.05,2.06,2.03,5.99-.07,11.98-.04,17.97-.01,.85,0,2.08-.44,2.12,1.15,.04,1.58-1.15,1.23-2.03,1.23-9.18,.02-18.37-.03-27.55,.05-1.81,.02-2.08-.72-2.07-2.27,.06-6.71,.03-13.42,.03-20.12Z"/>
    <path
          d="M24.32,347.11c0,6.06-.15,12.13,.07,18.19,.09,2.56-.77,3.24-3.1,2.95-1.18-.15-2.41-.15-3.58,0-2.26,.3-2.98-.47-2.96-2.83,.12-12.05,.07-24.1,.05-36.14,0-3.73,.4-3.28-3.34-3.31-3.27-.02-6.54,0-9.81,0-.83,0-1.63,.03-1.64-1.17-.01-1.18,.75-1.2,1.61-1.2,11.97,0,23.94,0,35.91,0,.81,0,1.64-.09,1.65,1.14,.01,1.39-.96,1.22-1.82,1.22-3.67,0-7.34,.07-11.01-.03-1.56-.04-2.07,.46-2.05,2.03,.08,6.38,.03,12.77,.03,19.15Z"/>
    <path
          d="M197.97,38.52c0-7.02,.05-14.04-.03-21.06-.02-1.7,.54-2.15,2.19-2.16,5.86-.02,5.86-.08,5.86,5.86,0,12.68-.04,25.36,.04,38.04,.01,1.94-.51,2.68-2.55,2.62-6.53-.2-5.43,.87-5.5-5.36-.06-5.98-.01-11.96-.01-17.95Z"/>
    <path
          d="M225.16,38.65c0,6.94-.05,13.88,.03,20.82,.02,1.76-.52,2.41-2.31,2.36-6.9-.18-5.69,.94-5.72-5.61-.07-12.76,.03-25.52-.07-38.28-.02-2.16,.63-2.68,2.7-2.63,5.37,.12,5.37,.03,5.37,5.4,0,5.98,0,11.96,0,17.95Z"/>
    <path
          d="M253.95,414.65c-4.63,0-9.25,0-13.88,0-.02-5.58,0-11.16-.08-16.74-.02-1.38,.31-2.02,1.85-1.97,3.43,.1,6.86,.04,10.28,.03,.92,0,1.77-.03,1.75,1.31-.03,1.33-.78,1.56-1.88,1.54-2.39-.03-4.79,.1-7.17-.04-2.32-.14-1.82,1.42-1.83,2.69-.02,1.31-.41,2.84,1.88,2.64,1.66-.15,3.35-.01,5.02-.03,.88-.01,1.58,.09,1.59,1.24,0,1.11-.48,1.61-1.58,1.59-1.59-.02-3.2,.14-4.78-.03-2.28-.25-2.18,1.14-2.15,2.66,.03,1.43-.33,2.94,2.06,2.73,2.22-.19,4.47,.09,6.69-.08,2-.15,2.59,.64,2.24,2.47Z"/>
</svg>
